<svg width="180" height="24" viewBox="0 0 180 24" fill="none" xmlns="http://www.w3.org/2000/svg">
<path d="M28.7395 7.85654C36.5159 7.39958 41.7768 6.92705 45.3285 6.50125C45.8092 4.66304 46.0709 2.74174 46.0709 0.75294C46.0709 0.498498 46.0655 0.249249 46.0548 0H0.0160228C0.00534093 0.249249 0 0.503691 0 0.75294C0 6.94782 2.49956 12.5611 6.55332 16.6633C8.12356 14.4772 13.6407 8.7393 28.7395 7.85135V7.85654Z" fill="#388939"/>
<path d="M17.876 22.9627C19.537 23.3366 21.2621 23.5391 23.0353 23.5391C28.937 23.5391 34.3207 21.3426 38.4012 17.7285C37.8671 17.7389 37.3009 17.7389 36.7028 17.7389C27.4683 17.7389 20.8402 21.0986 17.876 22.9576V22.9627Z" fill="#388939"/>
<path d="M40.4631 15.6551C42.1989 13.6715 43.5929 11.3919 44.5596 8.89941C41.2109 9.3356 36.6016 9.61601 31.3355 9.76659C27.4419 9.87564 23.5965 10.0418 19.8258 11.0336C15.8788 12.0773 11.6648 14.2375 8.8929 17.2752C8.64188 17.5452 8.38017 17.836 8.17188 18.1528C10.3617 19.9858 12.8986 21.419 15.6705 22.3433C17.9137 20.6297 25.3697 15.6966 36.7191 15.6966C38.1505 15.6966 39.3843 15.6811 40.4631 15.6499V15.6551Z" fill="#388939"/>
<path d="M147.521 5.82777C147.324 5.82777 147.131 5.84335 146.944 5.85892C143.553 6.18606 140.888 9.3588 140.888 13.2325C140.888 17.1063 143.553 20.279 146.944 20.6062C147.137 20.6269 147.329 20.6373 147.521 20.6373C149.93 20.6373 152.029 19.1989 153.193 17.0596C152.632 17.2569 152.013 17.3711 151.361 17.3711C148.92 17.3711 146.944 15.8341 146.944 13.9336H154.123C154.144 13.6999 154.155 13.4662 154.155 13.2273C154.155 9.13551 151.185 5.81738 147.521 5.81738V5.82777ZM146.944 11.8513C146.944 10.6622 147.676 9.69632 148.579 9.69632C149.481 9.69632 150.213 10.6622 150.213 11.8513H146.944Z" fill="#398B39"/>
<path d="M167.667 10.1277H167.651C167.486 7.96751 164.906 6.03583 161.627 5.8489C161.434 5.83851 161.242 5.82812 161.05 5.82812C159.095 5.82812 157.343 6.37855 156.131 7.25092V10.5846C156.905 9.99785 157.893 9.64994 158.962 9.64994C159.96 9.64994 160.879 9.95631 161.627 10.4704C162.006 10.73 162.278 11.0624 162.476 11.4362C162.449 11.431 162.422 11.4258 162.396 11.4207C162.006 11.3324 161.605 11.2753 161.183 11.2753C160.126 11.2753 159.143 11.5764 158.331 12.0957C157.007 12.9421 156.136 14.3545 156.136 15.9591C156.136 18.1815 157.803 20.0353 160.04 20.5182C160.222 20.5598 160.409 20.5909 160.601 20.6117C160.655 20.6117 160.703 20.6169 160.756 20.6169C161.541 20.6169 162.278 20.4352 162.935 20.1132V20.6377H167.689V10.1277C167.689 10.19 167.683 10.2471 167.678 10.3042V10.1277H167.667ZM162.471 17.2313C161.247 17.2313 160.254 16.5199 160.254 15.6423C160.254 14.7647 161.247 14.0533 162.471 14.0533V17.2313Z" fill="#398B39"/>
<path d="M179.999 9.1566V4.3326H176.341V2.89941H171.123V4.3326H169.648V9.1566H171.123V14.5726C171.123 17.6882 173.2 20.3884 175.951 20.6273C177.526 20.7623 178.963 20.1132 179.999 18.9864V14.7595V13.0979C179.529 14.1104 178.894 14.7387 178.189 14.7595H178.151C177.799 14.7491 177.462 14.5882 177.158 14.3026C176.613 13.7937 176.341 12.9992 176.341 12.2047V9.1618H179.999V9.1566Z" fill="#398B39"/>
<path d="M106.012 2.89941H99.9551V20.6428H106.012V2.89941Z" fill="#398B39"/>
<path d="M63.1669 2.89941V8.9437H59.4336V2.89941H53.377V20.6428H59.4336V14.827H63.1669V20.6428H69.2235V2.89941H63.1669Z" fill="#398B39"/>
<path d="M84.4612 13.2381C84.4612 9.14625 81.4916 5.82812 77.8278 5.82812C77.6302 5.82812 77.4379 5.8437 77.2509 5.85928C73.8595 6.18642 71.1943 9.35915 71.1943 13.2329C71.1943 17.1066 73.8595 20.2794 77.2509 20.6065C77.4432 20.6273 77.6355 20.6377 77.8278 20.6377C80.2365 20.6377 82.3355 19.1993 83.4998 17.0599C82.939 17.2572 82.3195 17.3715 81.6679 17.3715C79.2271 17.3715 77.2509 15.8344 77.2509 13.9339H84.4292C84.4505 13.7002 84.4612 13.4666 84.4612 13.2277V13.2381ZM77.2509 11.8568C77.2509 10.6677 77.9827 9.70187 78.8853 9.70187C79.7879 9.70187 80.5196 10.6677 80.5196 11.8568H77.2509Z" fill="#398B39"/>
<path d="M97.9739 10.3042V10.1277H97.9579C97.7923 7.96751 95.2127 6.03583 91.9333 5.8489C91.741 5.83851 91.5488 5.82812 91.3565 5.82812C89.4017 5.82812 87.6499 6.37855 86.4375 7.25092V10.5846C87.2119 9.99785 88.2 9.64994 89.2682 9.64994C90.2669 9.64994 91.1856 9.95631 91.9333 10.4704C92.3125 10.73 92.5849 11.0624 92.7825 11.4362C92.7558 11.431 92.7291 11.4258 92.7024 11.4207C92.3125 11.3324 91.912 11.2753 91.49 11.2753C90.4325 11.2753 89.4498 11.5764 88.638 12.0957C87.3134 12.9421 86.4428 14.3545 86.4428 15.9591C86.4428 18.1815 88.1092 20.0353 90.3471 20.5182C90.5287 20.5598 90.7156 20.5909 90.9079 20.6117C90.9613 20.6117 91.0093 20.6169 91.0627 20.6169C91.8479 20.6169 92.5849 20.4352 93.2418 20.1132V20.6377H97.9953V10.1277C97.9953 10.19 97.9899 10.2471 97.9846 10.3042H97.9739ZM92.7772 17.2313C91.5541 17.2313 90.5607 16.5199 90.5607 15.6423C90.5607 14.7647 91.5541 14.0533 92.7772 14.0533V17.2313Z" fill="#398B39"/>
<path d="M118.333 9.1566V4.3326H114.675V2.89941H109.457V4.3326H107.982V9.1566H109.457V14.5726C109.457 17.6882 111.534 20.3884 114.285 20.6273C115.86 20.7623 117.297 20.1132 118.333 18.9864V14.7595V13.0979C117.863 14.1104 117.228 14.7387 116.523 14.7595H116.485C116.133 14.7491 115.796 14.5882 115.492 14.3026C114.947 13.7937 114.675 12.9992 114.675 12.2047V9.1618H118.333V9.1566Z" fill="#398B39"/>
<path d="M126.366 20.6428V15.0451C126.724 14.0325 127.21 13.4042 127.744 13.3835H127.77C128.037 13.3938 128.294 13.5548 128.529 13.8404C128.945 14.3493 129.154 15.1438 129.154 15.9434V20.6428H133.127V13.5704C133.127 10.4496 131.546 7.74939 129.447 7.51052C128.246 7.37551 127.151 8.0246 126.366 9.15141V2.89941H120.304V20.6428H126.366Z" fill="#398B39"/>
</svg>
